<svg xmlns="http://www.w3.org/2000/svg" viewBox="0 0 300 300" role="presentation"><path d="M238 275L225 275L225 288Q225 293 221.5 296.5Q218 300 212.5 300Q207 300 203.5 296.5Q200 293 200 287L200 275L100 275L100 288Q100 293 96.5 296.5Q93 300 87.5 300Q82 300 78.5 296.5Q75 293 75 287L75 275L63 275Q46 275 31.5 266.5Q17 258 8.5 243.5Q0 229 0 212L0 63Q0 46 8.5 31.5Q17 17 31.5 8.5Q46 0 63 0L238 0Q254 0 268.5 8.5Q283 17 291.5 31.5Q300 46 300 63L300 213Q300 229 291.5 243.5Q283 258 268.5 266.5Q254 275 237 275ZM63 250L238 250Q253 250 264 239Q275 228 275 213L275 200L25 200L25 213Q25 228 36 239Q47 250 63 250ZM238 25L63 25Q47 25 36 36Q25 47 25 63L25 175L275 175L275 63Q275 47 264 36Q253 25 237 25ZM223 136Q226 132 226 127Q226 122 223 118L163 61Q153 50 137 50Q121 50 110 61L82 87Q79 91 78.5 96Q78 101 81.5 105Q85 109 90.5 109Q96 109 99 105L128 79Q132 75 137 75Q142 75 146 79L205 136Q209 140 214 139.5Q219 139 223 136Z" transform="translate(0 300) scale(1 -1)"/></svg>
