<svg xmlns="http://www.w3.org/2000/svg" viewBox="0 0 300 300" role="presentation"><path d="M282 129L258 215Q251 240 234 259.5Q217 279 193 290Q169 301 142.5 300Q116 299 93 287.5Q70 276 54 255.5Q38 235 32 209L14 126Q11 112 14 98Q17 84 26 73Q35 62 48 56Q61 50 75 50L89 50Q93 28 110.5 14Q128 0 150 0Q172 0 189.5 14Q207 28 211 50L222 50Q236 50 249.5 56.5Q263 63 271.5 74.5Q280 86 283 100.5Q286 115 282 129ZM150 25Q138 25 128.5 32Q119 39 115 50L185 50Q181 39 171.5 32Q162 25 150 25ZM252 90Q246 83 238.5 79Q231 75 222 75L75 75Q66 75 58.5 78.5Q51 82 45.5 89Q40 96 38 104Q36 112 38 121L57 203Q63 234 87.5 254Q112 274 143.5 275Q175 276 200.5 257Q226 238 234 208L258 123Q260 114 258.5 105.5Q257 97 252 90Z" transform="translate(0 300) scale(1 -1)"/></svg>
