<svg xmlns="http://www.w3.org/2000/svg" viewBox="0 0 300 300" role="presentation"><path d="M291 182Q271 215 242 236Q201 267 150 267Q99 267 58 236Q29 215 9 182Q0 167 0 150Q0 133 9 118Q29 85 58 64Q99 33 150 33Q201 33 242 64Q271 85 291 118Q300 133 300 150Q300 167 291 182ZM270 131Q252 103 228 84Q193 58 150 58Q107 58 72 84Q48 103 30 131Q25 140 25 150Q25 160 30 169Q48 197 72 216Q107 242 150 242Q193 242 228 216Q252 197 270 169Q275 160 275 150Q275 140 270 131ZM150 213Q133 212 118.5 204Q104 196 96 181.5Q88 167 88 150Q88 133 96 118.5Q104 104 118.5 96Q133 88 150 87.5Q167 87 181.5 95.5Q196 104 204.5 118.5Q213 133 212.5 150Q212 167 204 181.5Q196 196 181.5 204Q167 212 150 213ZM150 113Q134 113 123.5 123.5Q113 134 113 150Q113 166 123.5 177Q134 188 150 188Q166 188 177 177Q188 166 188 150Q188 134 177 123Q166 112 150 113Z" transform="translate(0 300) scale(1 -1)"/></svg>
