<svg xmlns="http://www.w3.org/2000/svg" viewBox="0 0 300 300" role="presentation"><path d="M228 186Q231 183 231 177.5Q231 172 228 169L172 114Q158 100 137.5 100Q117 100 102 114L79 137Q75 141 75 146Q75 151 78.5 155Q82 159 87.5 159Q93 159 96 155L120 132Q127 125 137 125Q147 125 155 132L210 186Q214 190 219 190Q224 190 228 186ZM300 150Q300 109 280 74.5Q260 40 225.5 20Q191 0 150 0Q109 0 74.5 20Q40 40 20 74.5Q0 109 0 150Q0 191 20 225.5Q40 260 74.5 280Q109 300 150 300Q191 300 225.5 280Q260 260 280 225.5Q300 191 300 150ZM275 150Q275 184 258 212.5Q241 241 212.5 258Q184 275 150 275Q116 275 87.5 258Q59 241 42 212.5Q25 184 25 150Q25 116 42 87.5Q59 59 87.5 42Q116 25 150 25Q184 25 212.5 42Q241 59 258 87.5Q275 116 275 150Z" transform="translate(0 300) scale(1 -1)"/></svg>
