<svg xmlns="http://www.w3.org/2000/svg" viewBox="0 0 300 300" role="presentation"><path d="M263 200L213 200Q197 200 186 189Q175 178 175 162L175 100L150 100L150 150Q150 170 139.5 188Q129 206 111 216Q125 230 125 250.5Q125 271 110 285.5Q95 300 75 300Q55 300 40 285.5Q25 271 25 250.5Q25 230 39 216Q21 206 10.5 188Q0 170 0 150L0 13Q0 7 3.5 3.5Q7 0 12.5 0Q18 0 21.5 3.5Q25 7 25 12L25 75L275 75L275 13Q275 7 278.5 3.5Q282 0 287.5 0Q293 0 296.5 3.5Q300 7 300 12L300 163Q300 178 289 189Q278 200 262 200ZM50 250Q50 260 57.5 267.5Q65 275 75 275Q85 275 92.5 267.5Q100 260 100 250Q100 240 92.5 232.5Q85 225 75 225Q65 225 57.5 232.5Q50 240 50 250ZM75 200Q96 200 110.5 185.5Q125 171 125 150L125 100L25 100L25 150Q25 171 39.5 185.5Q54 200 75 200ZM200 100L200 163Q200 168 203.5 171.5Q207 175 212 175L225 175L225 163Q225 157 228.5 153.5Q232 150 237.5 150Q243 150 246.5 153.5Q250 157 250 162L250 175L263 175Q268 175 271.5 171.5Q275 168 275 163L275 100Z" transform="translate(0 300) scale(1 -1)"/></svg>
